<svg xmlns="http://www.w3.org/2000/svg" width="137.596" height="31.6" viewBox="0 0 137.596 31.6">
  <g id="Group_4618" data-name="Group 4618" transform="translate(-638.248 -86)">
    <path id="Path_45" data-name="Path 45" d="M870,130.842l.366,0a1.551,1.551,0,0,1,1.19.479,1.5,1.5,0,0,1,.4,1.059,1.639,1.639,0,0,1-.46,1.161,1.8,1.8,0,0,1-1.367.546h-.683v-3.25Zm1.149-.833h0a1.3,1.3,0,0,0-.052-1.834,2.036,2.036,0,0,0-1.651-.452v2.624c.628,0,1.231.133,1.7-.338Zm-3.094,4.617h2.64a2.791,2.791,0,0,0,1.969-.682,1.944,1.944,0,0,0,.672-1.491,1.882,1.882,0,0,0-.648-1.445,2.4,2.4,0,0,0-.883-.5,2.046,2.046,0,0,0,.344-.235,1.513,1.513,0,0,0,.573-1.193,1.562,1.562,0,0,0-.594-1.231,2.571,2.571,0,0,0-1.74-.564h-2.333v7.343Z" transform="translate(-106.121 -19.064)" fill="#3c4b66" fill-rule="evenodd"/>
    <path id="Path_46" data-name="Path 46" d="M702.189,106.282l-.859,1.806q-.1.231-.133.336a.706.706,0,0,0-.038.24.45.45,0,0,0,.162.365,1.181,1.181,0,0,0,.448.212v.307h-4.2v-.307a1.034,1.034,0,0,0,.591-.288,2.976,2.976,0,0,0,.42-.692l4.673-9.858a2.533,2.533,0,0,0,.162-.355,1.032,1.032,0,0,0,.067-.356.66.66,0,0,0-.534-.653v-.307h4.5v.307a1.505,1.505,0,0,0-.372.173.42.42,0,0,0-.181.384.93.93,0,0,0,.038.25,3.63,3.63,0,0,0,.133.365l4.864,9.877a3.963,3.963,0,0,0,.486.817,1.069,1.069,0,0,0,.658.336v.308h-4.673v-.308a.993.993,0,0,0,.448-.153.417.417,0,0,0,.162-.365,1.22,1.22,0,0,0-.172-.635l-.878-1.806Zm2.918-6.322h0l-2.1,4.573h4.158l-2.06-4.573Z" transform="translate(-27.395 -4.956)" fill="#3c4b66" fill-rule="evenodd"/>
    <path id="Path_47" data-name="Path 47" d="M735.567,96.732a12.829,12.829,0,0,1,2.784.269,5.017,5.017,0,0,1,2.206,1.133,5.256,5.256,0,0,1,1.493,2.172,8.418,8.418,0,0,1,0,5.669,5.023,5.023,0,0,1-1.493,2.162,5.348,5.348,0,0,1-2.225,1.124,12.092,12.092,0,0,1-2.764.288h-7.146v-.307a.967.967,0,0,0,.443-.23.6.6,0,0,0,.154-.442V97.712a.622.622,0,0,0-.144-.442.913.913,0,0,0-.453-.23v-.307h7.147Zm-.231,10.7h0a4.5,4.5,0,0,0,3.265-1.047,4.356,4.356,0,0,0,1.069-3.238,4.436,4.436,0,0,0-1.05-3.257,4.491,4.491,0,0,0-3.284-1.047h-3.526v8.59Z" transform="translate(-41.639 -4.956)" fill="#3c4b66" fill-rule="evenodd"/>
    <path id="Path_48" data-name="Path 48" d="M769.435,97.039a.84.84,0,0,0-.587.307q-.151.231-.511.961l-4.37,9.57-.2.471a.937.937,0,0,0-.085.355.439.439,0,0,0,.18.356.874.874,0,0,0,.407.182v.307h-4.333v-.307a.861.861,0,0,0,.4-.173.439.439,0,0,0,.17-.365,1.14,1.14,0,0,0-.1-.452c-.069-.16-.123-.285-.161-.375l-4.37-9.57q-.207-.4-.4-.807a1.088,1.088,0,0,0-.719-.461v-.307h4.483v.307a1.2,1.2,0,0,0-.454.163.4.4,0,0,0-.151.356,1.116,1.116,0,0,0,.085.423c.057.141.1.25.123.327l3.349,7.514,3.33-7.514q.075-.153.141-.327a1.185,1.185,0,0,0,.066-.423.39.39,0,0,0-.17-.346,1.236,1.236,0,0,0-.435-.173v-.307h4.314v.307Z" transform="translate(-53.799 -4.956)" fill="#3c4b66" fill-rule="evenodd"/>
    <path id="Path_49" data-name="Path 49" d="M784.052,106.282l-.848,1.806q-.094.231-.132.336a.722.722,0,0,0-.038.24.452.452,0,0,0,.161.365,1.152,1.152,0,0,0,.442.212v.307h-4.143v-.307a1.02,1.02,0,0,0,.584-.288,3.02,3.02,0,0,0,.415-.692l4.614-9.858a2.618,2.618,0,0,0,.16-.355,1.045,1.045,0,0,0,.066-.356.658.658,0,0,0-.527-.653v-.307h4.444v.307a1.487,1.487,0,0,0-.367.173.423.423,0,0,0-.179.384.923.923,0,0,0,.038.25,3.511,3.511,0,0,0,.132.365l4.8,9.877a3.945,3.945,0,0,0,.48.817,1.049,1.049,0,0,0,.65.336v.308h-4.614v-.308a.973.973,0,0,0,.443-.153.42.42,0,0,0,.16-.365,1.234,1.234,0,0,0-.169-.635l-.867-1.806Zm2.881-6.322h0l-2.072,4.573h4.105l-2.034-4.573Z" transform="translate(-65.224 -4.956)" fill="#3c4b66" fill-rule="evenodd"/>
    <path id="Path_50" data-name="Path 50" d="M813.34,108.569a.623.623,0,0,0,.143.442.905.905,0,0,0,.449.231v.307h-3.748v-.307a.962.962,0,0,0,.44-.231.6.6,0,0,0,.153-.442V97.712a.626.626,0,0,0-.143-.442.9.9,0,0,0-.449-.231v-.307h4.34v.307a.856.856,0,0,0-.3.144.341.341,0,0,0-.1.279.489.489,0,0,0,.077.259c.051.083,7.084,7.455,7.148,7.532l.06-7.542q0-.519-.612-.673v-.307h3.748v.307a.957.957,0,0,0-.44.23.6.6,0,0,0-.153.442v10.858a.625.625,0,0,0,.143.442.9.9,0,0,0,.449.23v.308h-4v-.308a.683.683,0,0,0,.3-.125.374.374,0,0,0,.086-.221.528.528,0,0,0-.105-.318,3.854,3.854,0,0,0-.354-.393l-7.131-7.418v7.8Z" transform="translate(-79.396 -4.956)" fill="#3c4b66" fill-rule="evenodd"/>
    <path id="Path_51" data-name="Path 51" d="M854.638,107.619l-.226.192-.2-.164a.359.359,0,0,0-.236-.086.541.541,0,0,0-.207.048c-.075.032-.387.208-.934.532a12.534,12.534,0,0,1-2.171.961,8.372,8.372,0,0,1-2.8.477,8.151,8.151,0,0,1-5.3-1.745,6.62,6.62,0,0,1-.01-9.759,8.172,8.172,0,0,1,5.313-1.736,9.234,9.234,0,0,1,2.491.336,8.709,8.709,0,0,1,1.934.743c.484.269.836.464,1.057.58a4.666,4.666,0,0,0,.538.244.882.882,0,0,0,.312-.052c.094-.032.166-.061.217-.083l.226.173-1.736,2.786-.245-.182a1.733,1.733,0,0,0-.057-.522,2.3,2.3,0,0,0-.557-.6,4.977,4.977,0,0,0-1.595-.833,6.692,6.692,0,0,0-2.284-.394,5.373,5.373,0,0,0-3.52,1.169,4.422,4.422,0,0,0,.01,6.511,5.353,5.353,0,0,0,3.51,1.179,7.263,7.263,0,0,0,2.992-.673q1.5-.673,1.5-1.345v-.25l.245-.154,1.736,2.652Z" transform="translate(-93.353 -4.774)" fill="#3c4b66" fill-rule="evenodd"/>
    <path id="Path_52" data-name="Path 52" d="M874.077,106.925h8.135q.532,0,.684-.634h.3v3.324h-.285a.952.952,0,0,0-.237-.419.608.608,0,0,0-.447-.157h-11.5v-.307a.949.949,0,0,0,.437-.23.6.6,0,0,0,.152-.442V97.2a.76.76,0,0,0-.1-.4.864.864,0,0,0-.494-.269v-.307h11.289a.612.612,0,0,0,.437-.144.911.911,0,0,0,.228-.452h.3v3.305h-.3a.963.963,0,0,0-.228-.442.588.588,0,0,0-.437-.153h-7.944v3.036h5.15a.734.734,0,0,0,.4-.1.879.879,0,0,0,.266-.5h.3V104h-.3a.966.966,0,0,0-.228-.442.59.59,0,0,0-.438-.154h-5.15v3.517Z" transform="translate(-107.356 -4.445)" fill="#3c4b66" fill-rule="evenodd"/>
    <path id="Path_53" data-name="Path 53" d="M774.655,126.951a3.683,3.683,0,0,1,3.34,1.622l-.687.64a2.346,2.346,0,0,0-2.347-1.377c-1.571.031-2.425,1.318-2.425,2.953a2.789,2.789,0,0,0,2.576,2.961,2.567,2.567,0,0,0,2.3-1.627l.816.532a3.731,3.731,0,0,1-3.575,1.973,4.082,4.082,0,0,1-3.887-3.892,3.983,3.983,0,0,1,3.887-3.784Z" transform="translate(-61.194 -18.91)" fill="#3c4b66" fill-rule="evenodd"/>
    <path id="Path_54" data-name="Path 54" d="M760.005,131.742,759,129.389l-1.131,2.353Zm-2.455.687h0l-.6,1.243a3.522,3.522,0,0,0-.305.822h-1.3l3.567-7.464h.743l3.4,7.487-1.979,0a13.527,13.527,0,0,0-.782-2.086H757.55Z" transform="translate(-54.075 -18.947)" fill="#3c4b66" fill-rule="evenodd"/>
    <path id="Path_55" data-name="Path 55" d="M791.545,131.742l-1-2.353-1.132,2.353Zm-2.455.687h0l-.6,1.243a3.5,3.5,0,0,0-.305.822h-1.3l3.567-7.464h.743l3.4,7.487-1.98,0a13.539,13.539,0,0,0-.782-2.086H789.09Z" transform="translate(-68.64 -18.947)" fill="#3c4b66" fill-rule="evenodd"/>
    <path id="Path_56" data-name="Path 56" d="M805.862,134.023h.881a2.37,2.37,0,0,0,1.849-.74,3.743,3.743,0,0,0,.672-2.527,3.921,3.921,0,0,0-.281-1.614,1.874,1.874,0,0,0-.814-.912,2.637,2.637,0,0,0-1.292-.293h-1.015v6.086Zm2-6.711h0a3.066,3.066,0,0,1,1.407.322,2.7,2.7,0,0,1,.977.759,3.2,3.2,0,0,1,.564,1.081,4.739,4.739,0,0,1-.1,2.916,3.422,3.422,0,0,1-.8,1.224,3.515,3.515,0,0,1-1.2.768,4.072,4.072,0,0,1-1.484.266h-2.936v-7.335Z" transform="translate(-76.669 -19.077)" fill="#3c4b66" fill-rule="evenodd"/>
    <path id="Path_57" data-name="Path 57" d="M824,128.024h-2.308v2.4H824v.782h-2.308v2.574H824v.825h-3.92v-7.382H824v.8Z" transform="translate(-83.966 -19.035)" fill="#3c4b66" fill-rule="evenodd"/>
    <path id="Path_58" data-name="Path 58" d="M838.042,127.215l1.648.018v7.332h-1.64v-4.7l-.111-.059-2.321,4.721h-.656l-2.434-4.68-.094.032v4.712l-1.057.006v-7.389h1.639c.439,1.069,1.335,2.417,2.487,4.947l.15,0,2.389-4.944Z" transform="translate(-89.182 -19.029)" fill="#3c4b66" fill-rule="evenodd"/>
    <path id="Path_59" data-name="Path 59" d="M852.464,130c.009-.018.083-.024.092-.043l1.25-2.7h1.175L853,131.278v3.328h-1.64v-3.34l-.745-1.642-1.16-2.369h1.812c.369.911.825,1.83,1.2,2.744Z" transform="translate(-97.532 -19.051)" fill="#3c4b66" fill-rule="evenodd"/>
    <path id="Path_60" data-name="Path 60" d="M650.4,86a16.422,16.422,0,0,1,6.265,31.6l-1.4-4.16-1.438-4.286H643.342l-2.391,6.7a16.5,16.5,0,0,1-2.7-2.383l9.2-23.305,5.317-1,6.947,19.922a13.883,13.883,0,0,0-20.851-17.924l-.208-.223A16.369,16.369,0,0,1,650.4,86Zm2.453,20.24h0l-4.1-12.222-4.365,12.222Z" fill="#3c4b66" fill-rule="evenodd"/>
    <path id="Path_61" data-name="Path 61" d="M862.037,138.508V139.8H860.4v-1.294Z" transform="translate(-102.583 -24.247)" fill="#3c4b66" fill-rule="evenodd"/>
    <path id="Path_62" data-name="Path 62" d="M886.815,133.025v-2.707h-2.722v.764h1.281v2.342a4.2,4.2,0,0,1-1.44.326,2.789,2.789,0,0,1-2.577-2.961c0-1.635.831-2.932,2.4-2.952a2.248,2.248,0,0,1,2.375,1.387l.687-.651a3.712,3.712,0,0,0-3.339-1.622,3.9,3.9,0,0,0-3.888,3.784,3.838,3.838,0,0,0,3.888,3.892,5.275,5.275,0,0,0,3.339-1.335v-.267Z" transform="translate(-111.445 -18.91)" fill="#3c4b66" fill-rule="evenodd"/>
  </g>
</svg>
