<svg xmlns="http://www.w3.org/2000/svg" xmlns:xlink="http://www.w3.org/1999/xlink" width="500" zoomAndPan="magnify" viewBox="0 0 375 374.999991" height="500" preserveAspectRatio="xMidYMid meet" version="1.0"><defs><g/><clipPath id="5ccbb57a7c"><path d="M 157.214844 132 L 178 132 L 178 162 L 157.214844 162 Z M 157.214844 132 " clip-rule="nonzero"/></clipPath><clipPath id="e3080c4292"><path d="M 157.214844 131 L 179 131 L 179 163 L 157.214844 163 Z M 157.214844 131 " clip-rule="nonzero"/></clipPath><clipPath id="f3edb505c9"><path d="M 197 132 L 217.964844 132 L 217.964844 162 L 197 162 Z M 197 132 " clip-rule="nonzero"/></clipPath><clipPath id="3dab4e7acb"><path d="M 196 131 L 217.964844 131 L 217.964844 163 L 196 163 Z M 196 131 " clip-rule="nonzero"/></clipPath><clipPath id="180897a21f"><path d="M 176 123.375 L 198 123.375 L 198 170.625 L 176 170.625 Z M 176 123.375 " clip-rule="nonzero"/></clipPath></defs><g clip-path="url(#5ccbb57a7c)"><path fill="#03fa6e" d="M 176.320312 161.707031 C 175.988281 161.707031 175.65625 161.59375 175.394531 161.386719 L 158.457031 148.058594 C 158.09375 147.773438 157.882812 147.34375 157.882812 146.882812 C 157.882812 146.417969 158.09375 145.988281 158.457031 145.703125 L 175.394531 132.378906 C 175.65625 132.167969 175.988281 132.058594 176.320312 132.058594 C 176.785156 132.058594 177.214844 132.261719 177.5 132.628906 C 177.746094 132.941406 177.859375 133.335938 177.8125 133.734375 C 177.765625 134.132812 177.5625 134.488281 177.25 134.734375 L 161.8125 146.882812 L 177.25 159.027344 C 177.5625 159.277344 177.765625 159.632812 177.8125 160.027344 C 177.859375 160.425781 177.746094 160.816406 177.5 161.136719 C 177.214844 161.496094 176.785156 161.707031 176.320312 161.707031 " fill-opacity="1" fill-rule="nonzero"/></g><g clip-path="url(#e3080c4292)"><path fill="#2a446b" d="M 176.320312 131.417969 C 175.84375 131.417969 175.375 131.578125 175 131.875 L 158.0625 145.199219 C 157.542969 145.613281 157.246094 146.222656 157.246094 146.882812 C 157.246094 147.542969 157.542969 148.15625 158.0625 148.5625 L 175 161.886719 C 175.375 162.183594 175.84375 162.347656 176.320312 162.347656 C 176.984375 162.347656 177.597656 162.046875 178.003906 161.527344 C 178.359375 161.082031 178.511719 160.523438 178.445312 159.953125 C 178.378906 159.386719 178.09375 158.878906 177.644531 158.527344 L 162.84375 146.882812 L 177.644531 135.238281 C 178.09375 134.882812 178.378906 134.375 178.445312 133.808594 C 178.511719 133.242188 178.359375 132.683594 178.003906 132.234375 C 177.597656 131.714844 176.980469 131.417969 176.320312 131.417969 Z M 176.320312 132.695312 C 176.578125 132.695312 176.828125 132.808594 177 133.023438 C 177.292969 133.398438 177.226562 133.941406 176.855469 134.234375 L 160.777344 146.882812 L 176.855469 159.53125 C 177.226562 159.824219 177.292969 160.367188 177 160.738281 C 176.828125 160.957031 176.578125 161.070312 176.320312 161.070312 C 176.132812 161.070312 175.949219 161.007812 175.789062 160.882812 L 158.851562 147.558594 C 158.644531 147.394531 158.523438 147.144531 158.523438 146.882812 C 158.523438 146.617188 158.644531 146.367188 158.851562 146.203125 L 175.789062 132.878906 C 175.945312 132.753906 176.132812 132.695312 176.320312 132.695312 " fill-opacity="1" fill-rule="nonzero"/></g><g clip-path="url(#f3edb505c9)"><path fill="#03fa6e" d="M 198.667969 161.707031 C 198.207031 161.707031 197.777344 161.496094 197.488281 161.136719 C 196.976562 160.484375 197.089844 159.539062 197.742188 159.027344 L 213.179688 146.882812 L 197.742188 134.734375 C 197.089844 134.222656 196.976562 133.277344 197.488281 132.628906 C 197.777344 132.261719 198.207031 132.058594 198.667969 132.058594 C 199.003906 132.058594 199.332031 132.167969 199.597656 132.378906 L 216.535156 145.703125 C 216.898438 145.988281 217.105469 146.417969 217.105469 146.882812 C 217.105469 147.34375 216.898438 147.773438 216.53125 148.058594 L 199.597656 161.386719 C 199.332031 161.59375 199.003906 161.707031 198.667969 161.707031 " fill-opacity="1" fill-rule="nonzero"/></g><g clip-path="url(#3dab4e7acb)"><path fill="#2a446b" d="M 198.667969 131.417969 C 198.007812 131.417969 197.394531 131.714844 196.988281 132.234375 C 196.257812 133.160156 196.417969 134.507812 197.34375 135.238281 L 212.144531 146.882812 L 197.34375 158.527344 C 196.417969 159.253906 196.257812 160.601562 196.988281 161.527344 C 197.394531 162.046875 198.007812 162.347656 198.667969 162.347656 C 199.148438 162.347656 199.613281 162.183594 199.988281 161.886719 L 216.929688 148.5625 C 217.445312 148.15625 217.742188 147.542969 217.742188 146.882812 C 217.742188 146.222656 217.445312 145.613281 216.929688 145.199219 L 199.992188 131.875 C 199.617188 131.578125 199.148438 131.417969 198.667969 131.417969 Z M 198.667969 132.695312 C 198.855469 132.695312 199.042969 132.753906 199.199219 132.878906 L 216.140625 146.203125 C 216.347656 146.367188 216.464844 146.617188 216.464844 146.882812 C 216.464844 147.144531 216.347656 147.394531 216.140625 147.558594 L 199.199219 160.882812 C 199.042969 161.007812 198.855469 161.070312 198.667969 161.070312 C 198.414062 161.070312 198.160156 160.957031 197.992188 160.738281 C 197.699219 160.367188 197.761719 159.824219 198.136719 159.53125 L 214.210938 146.882812 L 198.136719 134.234375 C 197.761719 133.941406 197.699219 133.398438 197.992188 133.023438 C 198.160156 132.808594 198.414062 132.695312 198.667969 132.695312 " fill-opacity="1" fill-rule="nonzero"/></g><path fill="#03fa6e" d="M 179.078125 169.75 C 178.890625 169.75 178.710938 169.710938 178.535156 169.644531 C 178.164062 169.5 177.867188 169.21875 177.707031 168.855469 C 177.542969 168.484375 177.535156 168.078125 177.679688 167.707031 L 194.21875 124.972656 C 194.441406 124.402344 195.003906 124.015625 195.617188 124.015625 C 195.804688 124.015625 195.988281 124.050781 196.164062 124.117188 C 196.929688 124.417969 197.316406 125.289062 197.019531 126.058594 L 180.476562 168.789062 C 180.257812 169.363281 179.691406 169.75 179.078125 169.75 " fill-opacity="1" fill-rule="nonzero"/><g clip-path="url(#180897a21f)"><path fill="#2a446b" d="M 195.617188 123.375 C 194.742188 123.375 193.9375 123.929688 193.625 124.742188 L 177.082031 167.472656 C 176.878906 168.007812 176.890625 168.589844 177.121094 169.113281 C 177.351562 169.632812 177.773438 170.035156 178.304688 170.242188 C 178.554688 170.339844 178.8125 170.386719 179.078125 170.386719 C 179.953125 170.386719 180.757812 169.835938 181.074219 169.019531 L 197.613281 126.289062 C 198.039062 125.1875 197.492188 123.945312 196.390625 123.523438 C 196.144531 123.425781 195.882812 123.375 195.617188 123.375 Z M 195.617188 124.652344 C 195.722656 124.652344 195.828125 124.675781 195.929688 124.714844 C 196.375 124.882812 196.59375 125.382812 196.421875 125.828125 L 179.878906 168.558594 C 179.75 168.898438 179.421875 169.109375 179.078125 169.109375 C 178.972656 169.109375 178.867188 169.089844 178.765625 169.050781 C 178.320312 168.878906 178.101562 168.378906 178.277344 167.9375 L 194.816406 125.207031 C 194.949219 124.863281 195.273438 124.652344 195.617188 124.652344 " fill-opacity="1" fill-rule="nonzero"/></g><g fill="#ffffff" fill-opacity="1"><g transform="translate(95.351362, 216.116295)"><g><path d="M 8.78125 0 L 8.78125 -14.082031 L 23.363281 -14.082031 L 23.363281 0 L 29.867188 0 L 29.867188 -33.59375 L 23.363281 -33.59375 L 23.363281 -20.171875 L 8.78125 -20.171875 L 8.78125 -33.59375 L 2.238281 -33.59375 L 2.238281 0 Z M 8.78125 0 "/></g></g></g><g fill="#ffffff" fill-opacity="1"><g transform="translate(125.914541, 216.116295)"><g><path d="M 8.824219 0 L 8.824219 -17.398438 C 9.363281 -17.523438 12.054688 -17.730469 13.046875 -17.730469 L 16.609375 -17.730469 L 16.609375 -23.777344 L 11.972656 -23.777344 C 9.816406 -23.777344 5.714844 -23.609375 2.238281 -22.863281 L 2.238281 0 Z M 8.824219 0 "/></g></g></g><g fill="#ffffff" fill-opacity="1"><g transform="translate(142.521193, 216.116295)"><g><path d="M 5.507812 -26.882812 C 7.332031 -26.882812 8.78125 -27.792969 8.78125 -29.78125 C 8.78125 -31.5625 7.457031 -32.640625 5.507812 -32.640625 C 3.605469 -32.640625 2.238281 -31.5625 2.238281 -29.78125 C 2.238281 -27.792969 3.726562 -26.882812 5.507812 -26.882812 Z M 8.824219 0 L 8.824219 -23.777344 L 2.238281 -23.777344 L 2.238281 0 Z M 8.824219 0 "/></g></g></g><g fill="#ffffff" fill-opacity="1"><g transform="translate(152.00463, 216.116295)"><g><path d="M 12.136719 0.539062 C 19.21875 0.539062 22.742188 -2.03125 22.742188 -7.167969 C 22.742188 -10.933594 20.253906 -13.253906 14.910156 -14.746094 L 13.214844 -15.203125 C 10.355469 -16.03125 9.195312 -16.609375 9.195312 -17.8125 C 9.195312 -19.136719 10.605469 -19.59375 13.007812 -19.59375 C 15.035156 -19.59375 17.894531 -19.136719 20.007812 -18.019531 L 21.914062 -22.617188 C 19.46875 -23.902344 15.824219 -24.6875 12.21875 -24.6875 C 6.046875 -24.6875 2.566406 -21.996094 2.566406 -17.605469 C 2.566406 -13.667969 4.804688 -11.351562 9.777344 -10.023438 L 12.011719 -9.445312 C 15.492188 -8.492188 16.277344 -7.953125 16.277344 -6.667969 C 16.277344 -4.929688 14.375 -4.554688 11.558594 -4.554688 C 9.15625 -4.554688 6.253906 -5.09375 3.480469 -6.296875 L 1.699219 -1.53125 C 5.09375 -0.125 8.410156 0.539062 12.136719 0.539062 Z M 12.136719 0.539062 "/></g></g></g><g fill="#ffffff" fill-opacity="1"><g transform="translate(174.823387, 216.116295)"><g><path d="M 20.421875 0 L 20.421875 -6.089844 L 15.824219 -6.089844 C 13.007812 -6.089844 11.722656 -7.167969 11.722656 -9.816406 L 11.722656 -17.730469 L 20.378906 -17.730469 L 20.378906 -23.777344 L 11.722656 -23.777344 L 11.722656 -31.066406 L 5.136719 -31.066406 L 5.136719 -23.777344 L 0.953125 -23.777344 L 0.953125 -17.730469 L 5.136719 -17.730469 L 5.136719 -7.746094 C 5.136719 -2.566406 7.207031 0 12.882812 0 Z M 20.421875 0 "/></g></g></g><g fill="#ffffff" fill-opacity="1"><g transform="translate(195.405791, 216.116295)"><g><path d="M 5.507812 -26.882812 C 7.332031 -26.882812 8.78125 -27.792969 8.78125 -29.78125 C 8.78125 -31.5625 7.457031 -32.640625 5.507812 -32.640625 C 3.605469 -32.640625 2.238281 -31.5625 2.238281 -29.78125 C 2.238281 -27.792969 3.726562 -26.882812 5.507812 -26.882812 Z M 8.824219 0 L 8.824219 -23.777344 L 2.238281 -23.777344 L 2.238281 0 Z M 8.824219 0 "/></g></g></g><g fill="#ffffff" fill-opacity="1"><g transform="translate(204.889235, 216.116295)"><g><path d="M 17.730469 -6.460938 C 16.527344 -6.296875 14.789062 -6.171875 13.503906 -6.171875 C 10.480469 -6.171875 8.824219 -7.25 8.824219 -10.273438 L 8.824219 -23.777344 L 2.277344 -23.777344 L 2.277344 -10.230469 C 2.277344 -3.066406 7.375 -1.035156 13.253906 -1.035156 C 14.539062 -1.035156 16.195312 -1.160156 17.730469 -1.324219 L 17.730469 -0.457031 C 17.730469 2.484375 16.445312 3.769531 12.507812 3.769531 C 10.3125 3.769531 6.542969 3.148438 4.226562 2.03125 L 5.675781 8.285156 C 7.125 8.945312 10.480469 9.570312 13.421875 9.570312 C 19.261719 9.570312 24.273438 7.289062 24.273438 0.164062 L 24.273438 -23.527344 L 17.730469 -23.527344 Z M 17.730469 -6.460938 "/></g></g></g><g fill="#ffffff" fill-opacity="1"><g transform="translate(229.861523, 216.116295)"><g><path d="M 13.339844 -24.605469 C 10.3125 -24.605469 6.792969 -23.941406 5.011719 -23.238281 L 3.5625 -17.398438 C 6.171875 -18.433594 9.570312 -19.054688 11.929688 -19.054688 C 15.574219 -19.054688 17.644531 -17.976562 17.644531 -14.996094 L 17.644531 -14.125 C 15.699219 -14.375 14 -14.457031 12.261719 -14.457031 C 5.757812 -14.457031 1.65625 -12.136719 1.65625 -7.082031 L 1.65625 -7 C 1.65625 -1.410156 6.171875 0.664062 13.460938 0.664062 C 16.691406 0.664062 20.960938 0.207031 24.230469 -0.496094 L 24.230469 -15.203125 C 24.230469 -22.242188 19.925781 -24.605469 13.339844 -24.605469 Z M 8.410156 -7.414062 C 8.410156 -9.527344 10.398438 -10.273438 13.710938 -10.273438 C 14.746094 -10.273438 16.320312 -10.148438 17.644531 -9.941406 L 17.644531 -4.804688 C 16.277344 -4.597656 14.828125 -4.472656 13.710938 -4.472656 C 10.355469 -4.472656 8.410156 -5.300781 8.410156 -7.332031 Z M 8.410156 -7.414062 "/></g></g></g><g fill="#ffffff" fill-opacity="1"><g transform="translate(254.668147, 216.116295)"><g><path d="M 8.824219 0 L 8.824219 -18.433594 C 10.355469 -18.679688 11.847656 -18.847656 13.007812 -18.847656 C 16.070312 -18.847656 17.730469 -17.730469 17.730469 -14.746094 L 17.730469 0 L 24.273438 0 L 24.273438 -15.535156 C 24.273438 -22.65625 19.179688 -24.730469 13.296875 -24.730469 C 10.894531 -24.730469 6.214844 -24.191406 2.238281 -23.488281 L 2.238281 0 Z M 8.824219 0 "/></g></g></g><g fill="#03fa6e" fill-opacity="1"><g transform="translate(154.366598, 245.299906)"><g><path d="M 7.273438 -2.960938 L 3.445312 -15.601562 L 0.191406 -15.601562 L 5.078125 0 L 9.464844 0 L 14.390625 -15.601562 L 11.15625 -15.601562 Z M 7.273438 -2.960938 "/></g></g></g><g fill="#03fa6e" fill-opacity="1"><g transform="translate(168.212225, 245.299906)"><g><path d="M 6.195312 -11.425781 C 4.789062 -11.425781 3.15625 -11.121094 2.328125 -10.792969 L 1.65625 -8.078125 C 2.867188 -8.5625 4.445312 -8.847656 5.539062 -8.847656 C 7.234375 -8.847656 8.195312 -8.347656 8.195312 -6.964844 L 8.195312 -6.558594 C 7.289062 -6.675781 6.503906 -6.714844 5.695312 -6.714844 C 2.675781 -6.714844 0.769531 -5.636719 0.769531 -3.289062 L 0.769531 -3.25 C 0.769531 -0.652344 2.867188 0.308594 6.253906 0.308594 C 7.753906 0.308594 9.734375 0.0976562 11.253906 -0.230469 L 11.253906 -7.058594 C 11.253906 -10.332031 9.253906 -11.425781 6.195312 -11.425781 Z M 3.90625 -3.445312 C 3.90625 -4.425781 4.828125 -4.769531 6.367188 -4.769531 C 6.847656 -4.769531 7.578125 -4.714844 8.195312 -4.617188 L 8.195312 -2.230469 C 7.558594 -2.136719 6.886719 -2.078125 6.367188 -2.078125 C 4.808594 -2.078125 3.90625 -2.460938 3.90625 -3.40625 Z M 3.90625 -3.445312 "/></g></g></g><g fill="#03fa6e" fill-opacity="1"><g transform="translate(179.730958, 245.299906)"><g><path d="M 4.097656 0 L 4.097656 -15.601562 L 1.039062 -15.601562 L 1.039062 0 Z M 4.097656 0 "/></g></g></g><g fill="#03fa6e" fill-opacity="1"><g transform="translate(184.134384, 245.299906)"><g><path d="M 4.097656 -5.753906 L 4.097656 -15.601562 L 1.058594 -15.601562 L 1.058594 0 L 4.097656 0 L 4.097656 -5.484375 L 4.195312 -5.617188 Z M 7.597656 -5.65625 L 11.523438 -11.042969 L 8.175781 -11.042969 L 4.195312 -5.617188 L 8.136719 0 L 11.714844 0 Z M 7.597656 -5.65625 "/></g></g></g><g fill="#03fa6e" fill-opacity="1"><g transform="translate(195.345433, 245.299906)"><g><path d="M 6.90625 0.308594 C 10.523438 0.308594 13.042969 -2.191406 13.042969 -5.597656 L 13.042969 -5.617188 C 13.042969 -9.003906 10.523438 -11.484375 6.90625 -11.484375 C 3.289062 -11.484375 0.789062 -9.003906 0.789062 -5.617188 L 0.789062 -5.597656 C 0.789062 -2.191406 3.308594 0.308594 6.90625 0.308594 Z M 6.90625 -2.425781 C 5.078125 -2.425781 3.847656 -3.808594 3.847656 -5.597656 L 3.847656 -5.636719 C 3.847656 -7.40625 5.058594 -8.753906 6.90625 -8.753906 C 8.773438 -8.753906 9.964844 -7.40625 9.964844 -5.636719 L 9.964844 -5.597656 C 9.964844 -3.808594 8.753906 -2.425781 6.90625 -2.425781 Z M 6.90625 -2.425781 "/></g></g></g><g fill="#03fa6e" fill-opacity="1"><g transform="translate(208.421836, 245.299906)"><g><path d="M 6.097656 -2.15625 L 3.425781 -11.042969 L 0.230469 -11.042969 L 4 0 L 8.195312 0 L 11.964844 -11.042969 L 8.773438 -11.042969 Z M 6.097656 -2.15625 "/></g></g></g></svg>